<svg width="28" height="36" viewBox="0 0 28 36" fill="none" xmlns="http://www.w3.org/2000/svg">
<path d="M6.32511 5.08371C6.73891 5.08371 7.09359 4.72903 7.09359 4.31523V3.60588C7.09359 3.19208 6.73891 2.8374 6.32511 2.8374C5.91132 2.8374 5.55664 3.19208 5.55664 3.60588V4.31523C5.55664 4.72903 5.91132 5.08371 6.32511 5.08371Z" fill="white"/>
<path d="M11.2314 5.08371C11.6452 5.08371 11.9998 4.72903 11.9998 4.31523V3.60588C11.9998 3.19208 11.6452 2.8374 11.2314 2.8374C10.8176 2.8374 10.4629 3.19208 10.4629 3.60588V4.31523C10.4629 4.72903 10.8176 5.08371 11.2314 5.08371Z" fill="white"/>
<path d="M16.079 5.08371C16.4928 5.08371 16.8475 4.72903 16.8475 4.31523V3.60588C16.8475 3.19208 16.4928 2.8374 16.079 2.8374C15.6652 2.8374 15.3105 3.19208 15.3105 3.60588V4.31523C15.3697 4.72903 15.7243 5.08371 16.079 5.08371Z" fill="white"/>
<path d="M20.9853 5.08371C21.3991 5.08371 21.7537 4.72903 21.7537 4.31523V3.60588C21.7537 3.19208 21.3991 2.8374 20.9853 2.8374C20.5715 2.8374 20.2168 3.19208 20.2168 3.60588V4.31523C20.2759 4.72903 20.5715 5.08371 20.9853 5.08371Z" fill="white"/>
<path d="M20.4532 18.384C20.3941 17.7338 20.2759 16.8471 19.9212 16.1377C18.2069 12.4136 14.1281 12.3545 13.6552 12.3545C13.1823 12.3545 9.10349 12.4136 7.38921 16.1377C7.03453 16.9062 6.9163 17.7338 6.85719 18.384C6.79807 19.1525 6.79808 19.921 6.9163 20.6304C6.97541 20.8668 7.03453 21.1624 7.09364 21.4579C7.15275 21.6944 7.15275 21.8717 7.21187 22.1082C7.21187 22.2264 7.27098 22.3446 7.27098 22.522C7.33009 23.2313 7.50743 24.1772 8.39413 24.7092C8.45325 24.7092 8.51236 24.7683 8.63059 24.8274L8.92615 27.251C9.10349 28.7289 10.6996 29.32 11.7045 29.7338C11.8227 29.7929 11.9409 29.852 12.0592 29.852C12.5321 30.0294 13.005 30.1476 13.537 30.1476H13.6552C14.1872 30.1476 14.6601 30.0294 15.133 29.852C15.2513 29.7929 15.3695 29.7338 15.4877 29.7338C16.5518 29.32 18.0887 28.7289 18.2661 27.251L18.5616 24.8274C18.6798 24.7683 18.739 24.7683 18.7981 24.7092C19.7439 24.1772 19.8621 23.1722 19.9212 22.522C19.9212 22.4038 19.9803 22.2855 19.9803 22.1082C20.0395 21.8717 20.0395 21.6944 20.0986 21.4579C20.1577 21.1624 20.2168 20.9259 20.2759 20.6304C20.5124 19.921 20.5124 19.1525 20.4532 18.384ZM18.9163 20.453C18.8572 20.6895 18.7981 20.985 18.7981 21.2215C18.739 21.4579 18.739 21.6944 18.6798 21.8717C18.6798 22.0491 18.6207 22.1673 18.6207 22.3446C18.5616 22.9949 18.4434 23.2905 18.2069 23.4678L18.1478 23.5269C17.7931 23.6451 17.3794 23.8816 17.3202 24.3545L16.9656 27.0737C16.9064 27.6648 15.8424 28.0786 15.0739 28.3742C14.9557 28.4333 14.7784 28.4924 14.6601 28.5515C14.3646 28.6698 14.069 28.7289 13.7143 28.7289H13.6552C13.3005 28.7289 13.005 28.6698 12.7094 28.5515C12.5912 28.4924 12.473 28.4333 12.2956 28.3742C11.5271 28.0786 10.5222 27.6648 10.404 27.0737L10.0493 24.2954C9.99019 23.8225 9.51729 23.586 9.22172 23.4678H9.16261C8.86704 23.2905 8.80793 22.9949 8.74881 22.3446C8.74881 22.1673 8.6897 22.0491 8.6897 21.8717C8.63059 21.6353 8.63059 21.3988 8.57147 21.2215C8.51236 20.985 8.45325 20.6895 8.45325 20.453C8.33502 19.8619 8.33502 19.2116 8.39413 18.5614C8.45325 18.0294 8.57147 17.32 8.80793 16.788C10.1084 13.9506 13.1823 13.8323 13.7143 13.8323C13.7143 13.8323 13.7143 13.8323 13.7734 13.8323C14.1281 13.8323 17.3202 13.8914 18.6798 16.788C18.9163 17.32 19.0345 18.0294 19.0936 18.5614C19.0345 19.2116 19.0345 19.8028 18.9163 20.453Z" fill="white"/>
<path d="M26.7192 13.064L25.8916 12.2365C25.7734 12.1182 25.5369 11.9409 25.3005 11.7044C24.2365 10.8177 23.6453 10.2857 23.4089 9.93103C23.2315 9.75369 23.1133 9.45813 22.9951 9.16256C22.936 8.92611 22.8768 8.63054 22.8768 8.33498V7.86207C24.2956 7.74384 25.3596 6.62069 25.3596 5.20197V2.71921C25.3596 1.24138 24.1773 0 22.6404 0H4.55172C3.07389 0 1.83251 1.18227 1.83251 2.71921V5.26108C1.83251 6.6798 2.95567 7.86207 4.31527 7.92118V8.39409C4.31527 8.68966 4.25616 8.92611 4.19704 9.22167C4.13793 9.51724 3.96059 9.81281 3.78325 9.99015C3.5468 10.2857 3.01478 10.7586 1.89163 11.7044L0.591133 12.8867L0.472907 13.0049C0.35468 13.2414 0 13.8916 0 15.0739L0.118227 31.2118V31.33C0.0591137 31.6847 0 32.6305 0.295566 33.6355C0.650246 34.936 1.47783 35.7044 2.71921 35.9409H2.83744C4.72906 36 7.38916 36 10.4039 36C13.8325 36 17.734 36 21.6946 35.9409H21.9901C22.8768 35.9409 23.6453 35.9409 24.4138 35.9409H24.532C25.8325 35.7044 26.601 34.936 26.9557 33.5764C27.0148 33.2217 27.2512 32.0394 27.0739 31.3892V31.2709L27.1921 15.133C27.1921 13.9507 26.8965 13.3005 26.7192 13.064ZM3.36946 5.26108V2.71921C3.36946 2.06897 3.90148 1.47783 4.61084 1.47783H22.7586C23.4089 1.47783 24 2.00985 24 2.71921V5.26108C24 5.91133 23.468 6.50246 22.7586 6.50246H22.2266H5.14286H4.61084C3.90148 6.44335 3.36946 5.91133 3.36946 5.26108ZM25.6552 31.7438C25.6552 32.0394 25.7143 32.6305 25.5369 33.2217C25.3596 33.9901 25.0049 34.3448 24.3547 34.5222C23.6453 34.5222 22.8177 34.5222 21.9901 34.5222H21.6946C14.3645 34.5813 7.03448 34.5813 2.95567 34.5222C2.30542 34.4039 1.95074 34.0493 1.71429 33.2808C1.53695 32.5714 1.59606 31.803 1.59606 31.5665V31.3892L1.47783 15.133C1.47783 14.4236 1.59606 14.069 1.65517 13.8916L2.83744 12.8276C4.07882 11.7635 4.61084 11.2906 4.9064 10.8768C5.20197 10.5222 5.43842 10.1084 5.55665 9.57635C5.67488 9.16256 5.73399 8.74877 5.73399 8.33498V7.92118H21.3399V8.33498C21.3399 8.74877 21.399 9.16256 21.5172 9.57635C21.6946 10.0493 21.8719 10.5222 22.1675 10.8177C22.4631 11.2315 22.9951 11.7044 24.2365 12.7685C24.4729 12.9458 24.7094 13.1823 24.8276 13.2414L25.4187 13.8325C25.4778 13.9507 25.5961 14.3645 25.5961 15.0148L25.4778 31.0936L25.6552 31.7438Z" fill="white"/>
</svg>
