<svg width="24" height="17" viewBox="0 0 24 17" fill="none" xmlns="http://www.w3.org/2000/svg">
<path d="M3.00447 1.35847C2.72714 1.40716 2.49278 1.54513 2.29748 1.76831C1.97719 2.13757 2.00063 1.60194 2.00063 8.41909C2.00063 15.3417 1.96938 14.7209 2.34826 15.1186C2.5045 15.2809 2.62949 15.3661 2.78183 15.4229C2.99275 15.4959 3.23883 15.5 12 15.5C20.7612 15.5 21.0072 15.4959 21.2182 15.4229C21.3705 15.3661 21.4955 15.2809 21.6517 15.1186C22.0306 14.7209 21.9994 15.3417 21.9994 8.41909C21.9994 2.84363 21.9955 2.33235 21.933 2.14569C21.847 1.88193 21.5033 1.52484 21.2377 1.41528C21.0463 1.33818 20.8276 1.33818 12.1172 1.33412C7.20733 1.33006 3.10993 1.34224 3.00447 1.35847ZM20.9565 2.25525C21.1635 2.35263 21.1791 2.43785 21.1791 3.58622V4.64531H12H2.82089V3.5781C2.82479 2.44191 2.83261 2.37292 3.02009 2.26742C3.09821 2.22278 4.69577 2.21467 11.9883 2.21061C18.2887 2.21061 20.8901 2.22278 20.9565 2.25525ZM21.1791 10.7564C21.1791 13.9986 21.1752 14.3192 21.1127 14.4247C21.0776 14.4896 21.0072 14.5586 20.9565 14.5829C20.8159 14.6479 3.17633 14.6438 3.03572 14.5789C2.81308 14.4734 2.82089 14.6113 2.82089 10.7523V7.20174H12H21.1791V10.7564Z" fill="black"/>
<path d="M5.41432 9.70083C5.13309 9.84285 5.10965 10.2689 5.37135 10.4475C5.44557 10.5002 5.99632 10.5083 9.1094 10.5205C11.6288 10.5286 12.8045 10.5205 12.906 10.488C13.2146 10.3947 13.3123 10.0376 13.0974 9.7901L12.9842 9.65619L9.25783 9.64808C5.96507 9.63996 5.51978 9.64402 5.41432 9.70083Z" fill="black"/>
<path d="M5.41432 11.3649C5.13309 11.5069 5.10965 11.933 5.37135 12.1115C5.44166 12.1643 5.7932 12.1765 7.50794 12.1846C8.89848 12.1927 9.60546 12.1846 9.70311 12.1521C10.0117 12.0588 10.1093 11.7017 9.89451 11.4542L9.78123 11.3203L7.65637 11.3121C5.80492 11.3 5.51978 11.3081 5.41432 11.3649Z" fill="black"/>
</svg>
