<svg width="40" height="40" viewBox="0 0 40 40" fill="none" xmlns="http://www.w3.org/2000/svg">
<rect width="40" height="40" rx="4" fill="#DDDDDD"/>
<path fill-rule="evenodd" clip-rule="evenodd" d="M13.0772 24.7402H25.0592C25.8006 24.7388 26.5113 24.4435 27.0355 23.9191C27.5597 23.3947 27.8548 22.6839 27.8561 21.9423V12.7149H32.1363C32.6303 12.7158 33.1038 12.9125 33.4532 13.2619C33.8025 13.6113 33.9991 14.0849 34 14.5791V33L27.6846 28.6265C27.6013 28.5584 27.4969 28.5212 27.3893 28.5215H14.9408C14.4469 28.5202 13.9736 28.3233 13.6244 27.974C13.2751 27.6247 13.0784 27.1512 13.0772 26.6572V24.7402ZM9.40331 20.0253H23.5196C23.6425 20.0239 23.7599 19.9741 23.8464 19.8867C23.9328 19.7993 23.9813 19.6813 23.9813 19.5584C23.9813 19.4354 23.9328 19.3174 23.8464 19.23C23.7599 19.1426 23.6425 19.0928 23.5196 19.0915H9.40331C9.28039 19.0928 9.16295 19.1426 9.0765 19.23C8.99004 19.3174 8.94155 19.4354 8.94155 19.5584C8.94155 19.6813 8.99004 19.7993 9.0765 19.8867C9.16295 19.9741 9.28039 20.0239 9.40331 20.0253ZM9.40331 16.3698H23.5196C23.5813 16.3704 23.6425 16.3589 23.6996 16.3357C23.7568 16.3126 23.8088 16.2783 23.8527 16.2349C23.8965 16.1915 23.9314 16.1399 23.9551 16.0829C23.9789 16.026 23.9911 15.9649 23.9911 15.9032C23.9911 15.8415 23.9789 15.7804 23.9551 15.7235C23.9314 15.6666 23.8965 15.6149 23.8527 15.5715C23.8088 15.5281 23.7568 15.4939 23.6996 15.4707C23.6425 15.4476 23.5813 15.436 23.5196 15.4367H9.40331C9.34163 15.436 9.28043 15.4476 9.22325 15.4707C9.16607 15.4939 9.11405 15.5281 9.0702 15.5715C9.02635 15.6149 8.99153 15.6666 8.96777 15.7235C8.94401 15.7804 8.93178 15.8415 8.93178 15.9032C8.93178 15.9649 8.94401 16.026 8.96777 16.0829C8.99153 16.1399 9.02635 16.1915 9.0702 16.2349C9.11405 16.2783 9.16607 16.3126 9.22325 16.3357C9.28043 16.3589 9.34163 16.3704 9.40331 16.3698ZM9.40331 12.7149H17.3325C17.4554 12.7136 17.5728 12.6638 17.6593 12.5764C17.7457 12.489 17.7942 12.371 17.7942 12.2481C17.7942 12.1251 17.7457 12.0071 17.6593 11.9197C17.5728 11.8323 17.4554 11.7825 17.3325 11.7812H9.40331C9.28039 11.7825 9.16295 11.8323 9.0765 11.9197C8.99004 12.0071 8.94155 12.1251 8.94155 12.2481C8.94155 12.371 8.99004 12.489 9.0765 12.5764C9.16295 12.6638 9.28039 12.7136 9.40331 12.7149ZM6 9.86404V28.2851L12.3154 23.9115C12.3987 23.8434 12.5031 23.8063 12.6107 23.8064H25.0593C25.5532 23.8051 26.0265 23.6083 26.3757 23.259C26.7249 22.9097 26.9216 22.4363 26.9229 21.9423V9.86404C26.9216 9.37007 26.7249 8.89669 26.3757 8.54739C26.0265 8.19809 25.5532 8.00129 25.0593 8H7.86364C7.36975 8.00127 6.89646 8.19807 6.54723 8.54737C6.198 8.89667 6.00126 9.37006 6 9.86404Z" fill="url(#paint0_linear_12635_29994)"/>
<defs>
<linearGradient id="paint0_linear_12635_29994" x1="6" y1="20.5" x2="33.9999" y2="20.5" gradientUnits="userSpaceOnUse">
<stop stop-color="#58C8DF"/>
<stop offset="1" stop-color="#53A7DD"/>
</linearGradient>
</defs>
</svg>
