<svg width="21" height="20" viewBox="0 0 21 20" fill="none" xmlns="http://www.w3.org/2000/svg">
<path d="M15.842 11.6652C15.8424 11.8599 15.7745 12.0486 15.6502 12.1985C15.5802 12.2829 15.4942 12.3527 15.3971 12.4038C15.3001 12.4549 15.1939 12.4864 15.0847 12.4965C14.9754 12.5065 14.8653 12.495 14.7605 12.4624C14.6557 12.4299 14.5584 12.377 14.4742 12.3069L10.0035 8.57353L5.52455 12.1735C5.43924 12.2428 5.34107 12.2944 5.23569 12.3256C5.13032 12.3568 5.01981 12.3669 4.91052 12.3553C4.80123 12.3437 4.69532 12.3106 4.59887 12.258C4.50242 12.2053 4.41734 12.1341 4.34851 12.0485C4.27258 11.9623 4.2153 11.8613 4.18028 11.752C4.14526 11.6426 4.13324 11.5271 4.14499 11.4129C4.15674 11.2986 4.192 11.1881 4.24855 11.0881C4.3051 10.9881 4.38173 10.9009 4.47362 10.8319L9.47806 6.80687C9.6273 6.6843 9.8145 6.61729 10.0077 6.61729C10.2009 6.61729 10.3881 6.6843 10.5373 6.80687L15.5418 10.9735C15.6427 11.0571 15.7225 11.1633 15.7747 11.2835C15.8268 11.4037 15.8499 11.5344 15.842 11.6652Z" fill="#666666"/>
</svg>
