<svg width="14" height="14" viewBox="0 0 14 14" fill="none" xmlns="http://www.w3.org/2000/svg">
<g clip-path="url(#clip0_12660_14930)">
<path d="M8.06899 9.66475C8.18947 9.72008 8.32519 9.73272 8.45381 9.70059C8.58243 9.66846 8.69627 9.59348 8.77658 9.488L8.98366 9.21675C9.09233 9.07185 9.23325 8.95425 9.39524 8.87325C9.55724 8.79225 9.73587 8.75008 9.91699 8.75008H11.667C11.9764 8.75008 12.2732 8.873 12.492 9.09179C12.7107 9.31058 12.8337 9.60733 12.8337 9.91675V11.6667C12.8337 11.9762 12.7107 12.2729 12.492 12.4917C12.2732 12.7105 11.9764 12.8334 11.667 12.8334C8.88222 12.8334 6.2115 11.7272 4.24237 9.75804C2.27324 7.7889 1.16699 5.11819 1.16699 2.33341C1.16699 2.024 1.28991 1.72725 1.5087 1.50846C1.72749 1.28966 2.02424 1.16675 2.33366 1.16675H4.08366C4.39308 1.16675 4.68982 1.28966 4.90862 1.50846C5.12741 1.72725 5.25033 2.024 5.25033 2.33341V4.08341C5.25033 4.26453 5.20816 4.44317 5.12716 4.60516C5.04616 4.76716 4.92855 4.90808 4.78366 5.01675L4.51066 5.2215C4.40357 5.30327 4.32809 5.41959 4.29704 5.5507C4.26599 5.68182 4.28128 5.81963 4.34033 5.94075C5.13756 7.56 6.44874 8.86955 8.06899 9.66475Z" stroke="#2A2A2A" stroke-width="1.16667" stroke-linecap="round" stroke-linejoin="round"/>
</g>
<defs>
<clipPath id="clip0_12660_14930">
<rect width="14" height="14" fill="white"/>
</clipPath>
</defs>
</svg>
