<svg width="20" height="20" viewBox="0 0 20 20" fill="none" xmlns="http://www.w3.org/2000/svg">
<path d="M10 7.81818C8.79455 7.81818 7.81818 8.79455 7.81818 10C7.81818 11.2055 8.79455 12.1818 10 12.1818C11.2055 12.1818 12.1818 11.2055 12.1818 10C12.1818 8.79455 11.2055 7.81818 10 7.81818ZM14.8764 9.45455C14.7528 8.34843 14.2568 7.3172 13.4698 6.5302C12.6828 5.74319 11.6516 5.24719 10.5455 5.12364V4H9.45455V5.12364C8.34843 5.24719 7.3172 5.74319 6.5302 6.5302C5.74319 7.3172 5.24719 8.34843 5.12364 9.45455H4V10.5455H5.12364C5.24719 11.6516 5.74319 12.6828 6.5302 13.4698C7.3172 14.2568 8.34843 14.7528 9.45455 14.8764V16H10.5455V14.8764C11.6516 14.7528 12.6828 14.2568 13.4698 13.4698C14.2568 12.6828 14.7528 11.6516 14.8764 10.5455H16V9.45455H14.8764ZM10 13.8182C7.88909 13.8182 6.18182 12.1109 6.18182 10C6.18182 7.88909 7.88909 6.18182 10 6.18182C12.1109 6.18182 13.8182 7.88909 13.8182 10C13.8182 12.1109 12.1109 13.8182 10 13.8182Z" fill="#00A400"/>
</svg>
