<svg width="14" height="14" viewBox="0 0 14 14" fill="none" xmlns="http://www.w3.org/2000/svg">
<g clip-path="url(#clip0_12634_16878)">
<mask id="mask0_12634_16878" style="mask-type:alpha" maskUnits="userSpaceOnUse" x="0" y="0" width="14" height="14">
<path d="M13.5625 0.4375H0.4375V13.5625H13.5625V0.4375Z" fill="#D9D9D9" stroke="#4C4C4C" stroke-width="0.875"/>
</mask>
<g mask="url(#mask0_12634_16878)">
<path d="M7.27344 11.0828H0.875C1.26241 10.8579 1.59291 10.5427 1.83987 10.1628C2.08684 9.78285 2.24338 9.34876 2.29688 8.89542V6.70806C2.33922 5.78284 2.62625 4.88688 3.12722 4.11621C3.62818 3.34554 4.32418 2.7292 5.14062 2.33327C5.14062 1.94651 5.29043 1.57559 5.55708 1.30211C5.82374 1.02864 6.18539 0.875 6.5625 0.875C6.93961 0.875 7.30126 1.02864 7.56792 1.30211C7.83457 1.57559 7.98438 1.94651 7.98438 2.33327C8.80084 2.7292 9.49681 3.34554 9.99775 4.11621C10.4988 4.88688 10.7858 5.78284 10.8281 6.70806V8.16632M4.42969 11.0828V11.812C4.42959 12.1748 4.5175 12.532 4.68551 12.8513C4.85352 13.1707 5.09635 13.4421 5.39212 13.6412C5.68788 13.8403 6.0273 13.9609 6.3798 13.9919C6.73229 14.023 7.08679 13.9637 7.41136 13.8193M12.25 12.5411L10.8281 11.0828M10.8281 11.0828L9.40625 9.62456M10.8281 11.0828L9.40625 12.5411M10.8281 11.0828L12.25 9.62456" stroke="#4C4C4C" stroke-width="0.875" stroke-linecap="round" stroke-linejoin="round"/>
</g>
</g>
<defs>
<clipPath id="clip0_12634_16878">
<rect width="14" height="14" fill="white"/>
</clipPath>
</defs>
</svg>
