<svg width="100" height="100" viewBox="0 0 100 100" fill="none" xmlns="http://www.w3.org/2000/svg">
<path d="M87.1097 91.875C86.6731 92.4572 86.1069 92.9297 85.456 93.2551C84.8052 93.5806 84.0874 93.75 83.3597 93.75H16.641C15.915 93.7493 15.1992 93.58 14.5498 93.2554C13.9004 92.9309 13.3353 92.4599 12.899 91.8797C12.4627 91.2995 12.1672 90.6259 12.0356 89.9119C11.9041 89.198 11.9401 88.4632 12.141 87.7656L16.6097 72.1406C16.8909 71.164 17.4818 70.3053 18.2934 69.6937C19.1051 69.0822 20.0935 68.751 21.1097 68.75H78.9222C79.9405 68.752 80.9304 69.0854 81.7423 69.7C82.5542 70.3145 83.1439 71.1768 83.4222 72.1563L87.891 87.7812C88.0853 88.4776 88.1159 89.2095 87.9803 89.9197C87.8448 90.6299 87.5468 91.2991 87.1097 91.875Z" fill="#FFDB56"/>
<path d="M87.8594 87.7656L83.3906 72.1406C83.1095 71.164 82.5186 70.3053 81.7069 69.6937C80.8953 69.0822 79.9069 68.751 78.8906 68.75H78.5938C78.6369 68.841 78.6735 68.935 78.7031 69.0313L83.1719 84.6562C83.3698 85.3529 83.4037 86.0859 83.2708 86.7978C83.1378 87.5097 82.8418 88.1811 82.4058 88.7594C81.9698 89.3377 81.4058 89.8071 80.758 90.1308C80.1101 90.4544 79.3961 90.6236 78.6719 90.625H12.2188C12.542 91.5393 13.1409 92.3308 13.9328 92.8905C14.7248 93.4502 15.6709 93.7505 16.6406 93.75H83.3594C84.0853 93.7493 84.8012 93.58 85.4506 93.2554C86.0999 92.9309 86.665 92.4599 87.1013 91.8797C87.5376 91.2995 87.8332 90.6259 87.9647 89.9119C88.0963 89.198 88.0602 88.4632 87.8594 87.7656Z" fill="#FFBC26"/>
<path d="M79.6875 35.9371C79.658 41.8733 77.858 47.6657 74.5178 52.573C71.1776 57.4803 66.4491 61.2794 60.9375 63.484L51.4375 86.5309C51.3174 86.8127 51.1171 87.0531 50.8615 87.222C50.6059 87.3909 50.3063 87.481 50 87.481C49.6936 87.481 49.394 87.3909 49.1384 87.222C48.8828 87.0531 48.6825 86.8127 48.5625 86.5309L39.0625 63.484C34.0445 61.4954 29.6636 58.1763 26.3911 53.8838C23.1186 49.5913 21.0782 44.4879 20.4896 39.1224C19.9009 33.7569 20.7862 28.3325 23.0502 23.4326C25.3142 18.5327 28.8713 14.3427 33.3388 11.3134C37.8062 8.28416 43.015 6.53017 48.4049 6.24016C53.7948 5.95014 59.1618 7.13508 63.9285 9.6675C68.6952 12.1999 72.6813 15.984 75.458 20.6127C78.2347 25.2413 79.697 30.5395 79.6875 35.9371Z" fill="#FF4A4A"/>
<path d="M50 6.25C49.2188 6.25 48.4375 6.25 47.6562 6.34375C54.3198 6.89673 60.6015 9.68298 65.484 14.2512C70.3665 18.8195 73.564 24.9023 74.5584 31.5143C75.5528 38.1264 74.286 44.8805 70.9632 50.6828C67.6404 56.4851 62.4561 60.9959 56.25 63.4844L47.6562 84.375L48.5625 86.5625C48.6826 86.8444 48.8829 87.0847 49.1384 87.2536C49.394 87.4226 49.6936 87.5126 50 87.5126C50.3064 87.5126 50.606 87.4226 50.8616 87.2536C51.1171 87.0847 51.3174 86.8444 51.4375 86.5625L60.9375 63.4844C67.3255 60.9178 72.6229 56.2109 75.9232 50.1692C79.2235 44.1276 80.3215 37.1267 79.0293 30.3648C77.7371 23.6028 74.135 17.5002 68.8395 13.1011C63.544 8.70214 56.8842 6.28027 50 6.25Z" fill="#E7343F"/>
<path d="M68.75 35.9375C68.75 39.6459 67.6503 43.271 65.5901 46.3544C63.5298 49.4379 60.6014 51.8411 57.1753 53.2602C53.7492 54.6794 49.9792 55.0507 46.3421 54.3272C42.7049 53.6038 39.364 51.818 36.7418 49.1958C34.1195 46.5735 32.3338 43.2326 31.6103 39.5954C30.8868 35.9583 31.2581 32.1883 32.6773 28.7622C34.0964 25.3361 36.4996 22.4077 39.5831 20.3474C42.6665 18.2872 46.2916 17.1875 50 17.1875C54.9728 17.1875 59.742 19.1629 63.2583 22.6792C66.7746 26.1956 68.75 30.9647 68.75 35.9375Z" fill="white"/>
<path d="M52.2031 35.9375L60.0156 43.6719L57.8125 45.875L50 38.1406L42.2656 45.875L40.0625 43.75L47.7969 35.9375L40.0625 28.2031L42.2656 26L50 33.7344L57.8125 26L60.0156 28.2031L52.2031 35.9375Z" fill="#FF4A4A"/>
</svg>
