<svg width="20" height="20" viewBox="0 0 20 20" fill="none" xmlns="http://www.w3.org/2000/svg">
<path d="M17.5 8.33398C17.5 14.1674 10 19.1674 10 19.1674C10 19.1674 2.5 14.1674 2.5 8.33398C2.5 6.34486 3.29018 4.4372 4.69669 3.03069C6.10322 1.62416 8.01087 0.833984 10 0.833984C11.9892 0.833984 13.8968 1.62416 15.3033 3.03069C16.7098 4.4372 17.5 6.34486 17.5 8.33398Z" stroke="#4C4C4C" stroke-width="1.17647" stroke-linecap="round" stroke-linejoin="round"/>
<path d="M10 10.834C11.3807 10.834 12.5 9.7147 12.5 8.33398C12.5 6.95328 11.3807 5.83398 10 5.83398C8.61928 5.83398 7.5 6.95328 7.5 8.33398C7.5 9.7147 8.61928 10.834 10 10.834Z" stroke="#4C4C4C" stroke-width="1.17647" stroke-linecap="round" stroke-linejoin="round"/>
</svg>
