<svg width="77" height="14" viewBox="0 0 77 14" fill="none" xmlns="http://www.w3.org/2000/svg">
<g clip-path="url(#clip0_12634_16861)">
<mask id="mask0_12634_16861" style="mask-type:alpha" maskUnits="userSpaceOnUse" x="0" y="0" width="14" height="14">
<path d="M14 0H0V14H14V0Z" fill="#4C4C4C"/>
</mask>
<g mask="url(#mask0_12634_16861)">
<path d="M8.25 6.88888V6.89556M2.91666 12.9028V2.21141C2.91666 1.85698 3.05715 1.51706 3.30719 1.26643C3.55724 1.01581 3.89638 0.875 4.25 0.875H9.58335C9.93694 0.875 10.2761 1.01581 10.5262 1.26643C10.7762 1.51706 10.9167 1.85698 10.9167 2.21141V6.89556M2.91666 12.9028H7.25M2.91666 12.9028H1.75" stroke="#222222" stroke-width="0.875" stroke-linecap="round" stroke-linejoin="round"/>
<path d="M9.62069 10.2304V8.7686C9.62069 8.53602 9.71335 8.31295 9.87846 8.14848C10.0435 7.984 10.2673 7.8916 10.5008 7.8916C10.7341 7.8916 10.958 7.984 11.1231 8.14848C11.2881 8.31295 11.3808 8.53602 11.3808 8.7686V10.2304M8.83774 9.35327H12.1642C12.2487 9.35327 12.3324 9.37156 12.4092 9.40673C12.4861 9.44191 12.5545 9.49327 12.6095 9.55723C12.6646 9.6212 12.7051 9.69636 12.7284 9.77738C12.7516 9.85841 12.757 9.94355 12.7442 10.0268L12.376 12.41C12.344 12.6171 12.2387 12.806 12.0791 12.9424C11.9195 13.0788 11.7161 13.1538 11.5059 13.1537H9.49574C9.28556 13.1537 9.0823 13.0788 8.9227 12.9423C8.76319 12.8059 8.65792 12.6171 8.62596 12.41L8.2578 10.0268C8.24493 9.94355 8.25031 9.85841 8.27355 9.77738C8.29679 9.69636 8.33734 9.6212 8.39243 9.55723C8.44752 9.49327 8.51584 9.44191 8.59271 9.40673C8.66958 9.37156 8.75321 9.35327 8.83774 9.35327Z" stroke="#222222" stroke-width="0.875" stroke-linecap="round" stroke-linejoin="round"/>
</g>
</g>
<mask id="path-4-inside-1_12634_16861" fill="white">
<path d="M62.6562 2C62.6562 0.89543 63.5517 0 64.6562 0H74.6562C75.7608 0 76.6562 0.895431 76.6562 2V12C76.6562 13.1046 75.7608 14 74.6562 14H64.6562C63.5517 14 62.6562 13.1046 62.6562 12V2Z"/>
</mask>
<path d="M62.6562 2C62.6562 0.89543 63.5517 0 64.6562 0H74.6562C75.7608 0 76.6562 0.895431 76.6562 2V12C76.6562 13.1046 75.7608 14 74.6562 14H64.6562C63.5517 14 62.6562 13.1046 62.6562 12V2Z" fill="white"/>
<path d="M64.6562 0V1H74.6562V0V-1H64.6562V0ZM76.6562 2H75.6562V12H76.6562H77.6562V2H76.6562ZM74.6562 14V13H64.6562V14V15H74.6562V14ZM62.6562 12H63.6562V2H62.6562H61.6562V12H62.6562ZM64.6562 14V13C64.104 13 63.6562 12.5523 63.6562 12H62.6562H61.6562C61.6562 13.6569 62.9994 15 64.6562 15V14ZM76.6562 12H75.6562C75.6562 12.5523 75.2085 13 74.6562 13V14V15C76.3131 15 77.6562 13.6569 77.6562 12H76.6562ZM74.6562 0V1C75.2085 1 75.6562 1.44772 75.6562 2H76.6562H77.6562C77.6562 0.343146 76.3131 -1 74.6562 -1V0ZM64.6562 0V-1C62.9994 -1 61.6562 0.343146 61.6562 2H62.6562H63.6562C63.6562 1.44772 64.104 1 64.6562 1V0Z" fill="#034703" mask="url(#path-4-inside-1_12634_16861)"/>
<path d="M73.1562 4.375L68.3438 9.1875L66.1562 7" stroke="#034703" stroke-width="1.09375" stroke-linecap="round" stroke-linejoin="round"/>
<defs>
<clipPath id="clip0_12634_16861">
<rect width="14" height="14" fill="white"/>
</clipPath>
</defs>
</svg>
