<svg width="100" height="100" viewBox="0 0 100 100" fill="none" xmlns="http://www.w3.org/2000/svg">
<g clip-path="url(#clip0_12635_31452)">
<path d="M54.0878 38.3928C56.5095 46.0871 58.931 53.5201 61.3526 61.2147C58.931 70.2152 56.5095 79.2158 54.0878 88.2164C48.8019 88.2164 43.755 87.4707 39.0888 85.9969C31.5446 83.6162 26.7989 76.2117 27.8036 68.3898C29.6343 54.1461 34.996 43.7668 38.6282 38.1314C40.5907 37.0668 42.5532 36.0021 44.5155 34.9375C47.7063 36.002 50.897 37.3281 54.0878 38.3928Z" fill="#95CC29"/>
<path d="M54.0883 21.8439C55.1879 23.7123 56.2875 25.5809 57.3871 27.4492C56.2875 29.1469 55.1879 30.8447 54.0883 32.5424C51.7272 33.7012 49.3662 34.8602 47.0053 36.0189C45.0815 34.8602 43.1574 33.7012 41.2336 32.5424C40.2453 30.2027 39.2571 27.8633 38.2688 25.5236C38.2287 25.4287 37.7317 24.19 38.5022 23.0291C39.2731 21.8676 40.6092 21.8438 40.7121 21.8438L54.0883 21.8439Z" fill="#C7E62E"/>
<path d="M69.9074 25.5236L66.9426 32.5424C64.7805 33.6713 62.6184 34.8 60.4563 35.9289C58.3334 34.8 56.2107 33.6713 54.0879 32.5424C54.0879 28.9762 54.0879 25.41 54.0879 21.8438H67.4643C67.5672 21.8438 68.9033 21.8676 69.6742 23.0291C70.4445 24.19 69.9477 25.4287 69.9074 25.5236Z" fill="#95CC29"/>
<path d="M80.5061 70.4756C80.5061 77.4955 75.9566 83.8299 69.0867 85.9971C64.4207 87.4709 59.3738 88.2166 54.0879 88.2166V38.393C56.7521 37.3283 59.4164 36.0021 62.0805 34.9375C64.5695 36.0021 67.0584 37.0668 69.5473 38.1314C73.1875 43.5824 79.6182 56.6539 80.5061 70.4756Z" fill="#6BB324"/>
<path d="M12.7143 51.7536C13.7391 52.778 15.4975 52.8526 16.6038 51.9163L23.7938 46.0153C25.0427 44.9903 25.2251 43.1458 24.2014 41.8954C23.1776 40.6456 21.3356 40.4624 20.0864 41.4874L17.3438 43.7382C17.4479 35.8884 19.8907 28.3833 24.4266 22.0026C28.9653 15.6179 35.2307 10.8321 42.5454 8.16319C44.0626 7.60967 44.8442 5.9294 44.2913 4.41026C43.7384 2.89151 42.0604 2.10811 40.5429 2.66241C32.111 5.73917 24.8905 11.2528 19.6624 18.6075C14.6518 25.6554 11.8553 33.8907 11.5243 42.5235L10.0423 41.1075C8.87429 39.9915 7.02332 40.0345 5.90828 41.2044C4.79324 42.3741 4.83679 44.2269 6.00496 45.3433L12.7143 51.7536Z" fill="#6F90EF"/>
<path d="M99.4936 37.5274C98.4852 30.8918 95.9852 24.5875 92.1179 19.0123C88.5261 13.8346 83.9417 9.53714 78.6399 6.33499L80.5819 5.71878C82.1214 5.2303 82.9739 3.58499 82.486 2.04378C81.9983 0.502372 80.3546 -0.350753 78.8155 0.137529L69.9563 2.94847C68.5358 3.37542 67.6403 4.94886 67.9866 6.39104L69.6581 15.4307C69.9186 16.8403 71.1477 17.8258 72.53 17.8258C72.7065 17.8258 72.8856 17.8096 73.0655 17.7762C74.6534 17.4819 75.7024 15.9545 75.4083 14.3649L74.7587 10.852C79.7245 13.677 84.0054 17.5862 87.3155 22.3565C89.8315 25.9819 91.6802 29.9643 92.8163 34.158C93.6999 37.4202 94.1524 40.8098 94.1524 44.2584C94.1524 51.2832 92.2444 58.1535 88.6345 64.1272C87.7985 65.5104 88.2409 67.3102 89.6225 68.1473C90.0958 68.434 90.6177 68.5703 91.1333 68.5703C92.1227 68.5703 93.0884 68.0674 93.638 67.1578C97.7999 60.2703 100 52.3518 100 44.2586C100 41.9877 99.8298 39.7391 99.4936 37.5274Z" fill="#6666FF"/>
<path d="M54.0879 32.5393C55.3691 33.2881 56.6506 34.0367 57.9318 34.7855C56.6506 35.9885 55.3691 37.1912 54.0879 38.3941C48.6738 38.3941 43.2598 38.3941 37.8457 38.3941C36.2285 38.3941 34.916 37.0846 34.916 35.4666C34.916 33.8506 36.2285 32.5391 37.8457 32.5391H54.0879V32.5393Z" fill="#54678C"/>
<path d="M73.2598 35.4664C73.2598 37.0723 71.9373 38.3939 70.3301 38.3939H54.0879V32.5391H70.3301C71.9373 32.5389 73.2598 33.8604 73.2598 35.4664Z" fill="#3D4466"/>
<path d="M53.9268 68.0488C53.9814 68.0488 54.0342 68.0469 54.0869 68.043C54.5371 69.5168 54.9873 70.9904 55.4375 72.4643C54.9873 74.0207 54.5371 75.5771 54.0869 77.1338C54.0656 77.1348 54.042 77.1357 54.0166 77.1365C53.9932 77.1373 53.9697 77.1377 53.9463 77.1377C52.3291 77.1377 51.0166 75.8262 51.0166 74.2102V73.7379C49.5264 73.5057 48.2119 72.9768 46.4893 71.8525C45.1357 70.9684 45.6396 67.801 45.6396 67.801L49.6951 66.9766C51.2633 68.0012 51.8154 68.0645 53.9268 68.0488Z" fill="#ECF2FF"/>
<path d="M51.712 53.4141C51.6085 53.9664 51.7296 54.4406 51.9093 54.5811C52.4152 54.9771 53.13 55.3852 54.087 55.8184C54.8697 57.2146 55.6523 58.6111 56.4349 60.0074C55.6523 60.7176 54.8697 61.4277 54.087 62.1377C53.7851 62.0287 53.355 61.8607 52.841 61.6518C50.8488 60.8418 49.4035 60.0592 48.2921 59.1869C46.341 57.6607 45.4445 55.0318 45.9542 52.3309C46.4855 49.5088 48.4152 47.2469 51.0167 46.3588V45.7557C51.0167 44.1396 52.3292 42.8281 53.9464 42.8281C53.9933 42.8281 54.0402 42.8301 54.087 42.832C54.7367 44.6041 55.3863 46.376 56.0361 48.148C55.3865 49.3256 54.7369 50.5033 54.087 51.6809C53.8626 51.6646 53.4558 51.7297 52.964 51.8779C52.0187 52.1631 51.7667 53.1252 51.712 53.4141Z" fill="#ECF2FF"/>
<path d="M60.624 52.1764C59.5596 53.3355 57.7393 53.4371 56.5479 52.4105C56.5518 52.4145 56.5537 52.4164 56.5537 52.4184C56.4951 52.3715 55.5557 51.6162 54.0869 51.6846V42.8359C55.6396 42.9082 56.876 44.1904 56.876 45.7596V46.1772C58.9951 46.7647 60.2881 47.8984 60.4795 48.0742C61.6318 49.1688 61.6943 51.0092 60.624 52.1764Z" fill="#D9E5FF"/>
<path d="M62.8877 66.3178C62.3896 69.2803 60.2393 72.282 56.876 73.4236V74.2121C56.876 75.7813 55.6396 77.0635 54.0869 77.1357V68.0451C55.8662 67.9592 56.8975 66.6049 57.1104 65.348C57.2647 64.4328 57.0928 63.2148 55.4014 62.6178C54.9307 62.45 54.4932 62.2918 54.0869 62.1397V55.8203C54.3838 55.9551 54.7041 56.0916 55.0498 56.232C55.6963 56.4936 56.4502 56.7785 57.3564 57.0986C61.3545 58.5094 63.5791 62.2154 62.8877 66.3178Z" fill="#D9E5FF"/>
<path d="M54.0879 80.3563L59.7855 90.4719L54.0879 98.9201C51.8613 99.6441 49.5586 100.003 47.2559 100.003C43.8535 100.003 40.457 99.2168 37.332 97.6555L18.9668 88.4672H9.55469V63.5078H16.3828L54.0879 80.3563Z" fill="#FFBDA9"/>
<path d="M86.3301 85.2635L56.0117 98.193C55.3789 98.4643 54.7363 98.7063 54.0879 98.9151V80.3512L59.8828 82.9411L81.0742 75.3942L82.3848 74.9219C84.2051 74.3131 86.1074 74.6975 87.5137 75.7768C88.2578 76.3174 88.8555 77.0669 89.2422 77.9704C90.4492 80.7903 89.1445 84.0553 86.3301 85.2635Z" fill="#FFA68C"/>
<path d="M16.3828 61.2713V90.2121C16.3828 91.8301 15.0703 93.1396 13.4531 93.1396H2.92969C1.3125 93.1396 0 91.8301 0 90.2121V61.2713C0 59.6553 1.3125 58.3438 2.92969 58.3438H13.4531C15.0703 58.3438 16.3828 59.6553 16.3828 61.2713Z" fill="#6F90EF"/>
<path d="M54.0879 69.3998L58.5502 78.3986L54.0879 82.1342L16.3828 63.5078C16.3828 63.5078 18.293 62.9008 21.0703 62.292C23.8457 61.6852 27.4883 61.0781 30.9531 61.0781C35.998 61.0781 41.0254 62.2121 45.5215 64.6867L54.0879 69.3998Z" fill="#FFCCBD"/>
<path d="M62.791 80.2709C61.4492 83.0109 58.0312 84.1215 55.3437 82.7533L54.0879 82.1328V69.3984L60.3086 72.8195C63.0547 74.1896 64.1641 77.525 62.791 80.2709Z" fill="#FFBDA9"/>
</g>
<defs>
<clipPath id="clip0_12635_31452">
<rect width="100" height="100" fill="white"/>
</clipPath>
</defs>
</svg>
