<svg width="20" height="20" viewBox="0 0 20 20" fill="none" xmlns="http://www.w3.org/2000/svg">
<path d="M9.96799 14.9875H15.643C15.864 14.9998 16.0845 14.9554 16.2834 14.8584C16.4824 14.7614 16.6532 14.6151 16.7795 14.4333C16.9058 14.2516 16.9835 14.0405 17.0051 13.8202C17.0268 13.5999 16.9916 13.3778 16.903 13.175C16.603 12.2683 15.4072 11.1808 15.4072 10.1108C15.4072 7.73579 15.4072 7.11079 14.2372 5.71412C13.8585 5.26457 13.3891 4.9002 12.8597 4.64496L12.2072 4.32829C12.0977 4.26221 12.0032 4.17394 11.9299 4.06917C11.8565 3.96441 11.8059 3.84545 11.7813 3.71996C11.7161 3.29696 11.4924 2.91461 11.1557 2.65045C10.819 2.38628 10.3944 2.26009 9.96799 2.29746C9.54934 2.27232 9.13634 2.40414 8.80966 2.66717C8.48299 2.93021 8.26609 3.30557 8.20133 3.71996C8.17195 3.84978 8.1144 3.97157 8.03275 4.07669C7.9511 4.18181 7.84735 4.26771 7.72883 4.32829L7.07633 4.64496C6.54719 4.9003 6.07804 5.26466 5.69966 5.71412C4.53049 7.11079 4.53049 7.73579 4.53049 10.1108C4.53049 11.1808 3.38883 12.1591 3.08883 13.12C2.90799 13.7008 2.80799 14.9875 4.32216 14.9875H9.96799Z" stroke="#4C4C4C" stroke-width="1.5" stroke-linecap="round" stroke-linejoin="round"/>
<path d="M12.6871 14.9883C12.6943 15.3473 12.6288 15.7041 12.4947 16.0372C12.3606 16.3704 12.1606 16.673 11.9066 16.9269C11.6527 17.1809 11.3501 17.3809 11.0169 17.515C10.6838 17.6491 10.327 17.7146 9.96797 17.7074C9.60884 17.7151 9.25187 17.6499 8.91857 17.516C8.58527 17.382 8.28253 17.182 8.02856 16.9279C7.7746 16.6739 7.57467 16.3711 7.4408 16.0377C7.30694 15.7044 7.24191 15.3474 7.24964 14.9883" stroke="#4C4C4C" stroke-width="1.5" stroke-linecap="round" stroke-linejoin="round"/>
</svg>
