<svg width="56" height="56" viewBox="0 0 56 56" fill="none" xmlns="http://www.w3.org/2000/svg">
<path d="M0 28C0 12.536 12.536 0 28 0C43.464 0 56 12.536 56 28C56 43.464 43.464 56 28 56C12.536 56 0 43.464 0 28Z" fill="#E0F2F1"/>
<path d="M30.137 33.3293C30.378 33.4399 30.6494 33.4652 30.9066 33.4009C31.1639 33.3367 31.3916 33.1867 31.5522 32.9758L31.9663 32.4333C32.1837 32.1435 32.4655 31.9083 32.7895 31.7463C33.1135 31.5843 33.4708 31.4999 33.833 31.4999H37.333C37.9518 31.4999 38.5453 31.7458 38.9829 32.1833C39.4205 32.6209 39.6663 33.2144 39.6663 33.8333V37.3333C39.6663 37.9521 39.4205 38.5456 38.9829 38.9832C38.5453 39.4208 37.9518 39.6666 37.333 39.6666C31.7635 39.6666 26.422 37.4541 22.4838 33.5158C18.5455 29.5776 16.333 24.2361 16.333 18.6666C16.333 18.0477 16.5788 17.4543 17.0164 17.0167C17.454 16.5791 18.0475 16.3333 18.6663 16.3333H22.1663C22.7852 16.3333 23.3787 16.5791 23.8163 17.0167C24.2538 17.4543 24.4997 18.0477 24.4997 18.6666V22.1666C24.4997 22.5288 24.4153 22.8861 24.2533 23.2101C24.0913 23.5341 23.8561 23.8159 23.5663 24.0333L23.0203 24.4428C22.8062 24.6063 22.6552 24.8389 22.5931 25.1012C22.531 25.3634 22.5616 25.639 22.6797 25.8813C24.2741 29.1198 26.8965 31.7388 30.137 33.3293Z" stroke="#034703" stroke-width="2.33333" stroke-linecap="round" stroke-linejoin="round"/>
</svg>
