<svg width="14" height="14" viewBox="0 0 14 14" fill="none" xmlns="http://www.w3.org/2000/svg">
<g clip-path="url(#clip0_12634_16891)">
<mask id="mask0_12634_16891" style="mask-type:luminance" maskUnits="userSpaceOnUse" x="0" y="0" width="14" height="14">
<path d="M14 0H0V14H14V0Z" fill="white"/>
</mask>
<g mask="url(#mask0_12634_16891)">
<path d="M9.36121 7.42116C8.73122 6.43838 7.6583 5.85156 6.49107 5.85156C5.32394 5.85156 4.25091 6.43838 3.62104 7.42116L2.10304 9.78924C1.85117 10.1822 1.73496 10.6361 1.7669 11.1017C1.79884 11.5673 1.97603 12.0011 2.27927 12.356C2.58272 12.7108 2.9837 12.9532 3.43882 13.0573C3.89394 13.1612 4.36049 13.1169 4.78796 12.929L4.81584 12.9166C5.89153 12.4529 7.12104 12.4571 8.19407 12.929C8.47082 13.0506 8.76402 13.1122 9.05986 13.1122C9.22077 13.1122 9.38256 13.0939 9.54286 13.0574C9.99803 12.9535 10.399 12.711 10.7025 12.3561C11.0059 12.0013 11.1832 11.5676 11.2152 11.1019C11.2473 10.6361 11.1311 10.1822 10.8792 9.78915L9.36121 7.42116ZM10.0789 11.8227C9.69274 12.2741 9.06808 12.4169 8.52444 12.1778C7.87823 11.8936 7.18459 11.7515 6.49074 11.7515C5.79754 11.7515 5.10401 11.8934 4.45823 12.1774L4.43986 12.1855C3.90035 12.4136 3.2849 12.2691 2.90305 11.8227C2.51736 11.3712 2.47346 10.7321 2.79389 10.2321L4.312 7.864C4.7903 7.11781 5.60485 6.6723 6.49107 6.6723C7.37728 6.6723 8.19194 7.11781 8.67034 7.864L10.1883 10.232C10.5088 10.7322 10.4648 11.3715 10.0789 11.8227Z" fill="#4C4C4C"/>
<path d="M2.51276 7.41662C2.96435 7.24315 3.30743 6.87925 3.47886 6.39186C3.64186 5.92809 3.6285 5.4045 3.44105 4.91744C3.25349 4.4307 2.91233 4.03336 2.48049 3.79848C2.02665 3.55186 1.52816 3.51169 1.07731 3.68548C0.170269 4.03422 -0.245975 5.15509 0.149547 6.18465C0.465496 7.00411 1.20239 7.5214 1.9474 7.5214C2.13763 7.5214 2.32839 7.48764 2.51276 7.41662ZM0.91539 5.88985C0.682324 5.28316 0.887084 4.63781 1.37211 4.45131C1.4597 4.41756 1.5523 4.40079 1.64683 4.40079C1.79274 4.40079 1.94345 4.44063 2.08849 4.51956C2.34933 4.6613 2.55772 4.9074 2.67522 5.21234C2.7926 5.51751 2.80306 5.83965 2.70459 6.11961C2.61433 6.37616 2.44162 6.5648 2.21838 6.65056C1.73399 6.83727 1.1492 6.49601 0.91539 5.88985Z" fill="#4C4C4C"/>
<path d="M13.3408 5.86205C12.5588 5.28442 11.389 5.53446 10.7333 6.42015C10.0782 7.30625 10.1806 8.49752 10.9614 9.07559C11.2462 9.28655 11.5826 9.38735 11.927 9.38735C12.5271 9.38735 13.1516 9.08101 13.5689 8.5177C14.224 7.6316 14.1216 6.44033 13.3408 5.86205ZM12.9093 8.02947C12.5221 8.5521 11.8674 8.72546 11.4497 8.41602C11.0323 8.10701 11.0069 7.43047 11.393 6.90817C11.6497 6.56146 12.0246 6.36856 12.3701 6.36856C12.5449 6.36856 12.7122 6.4179 12.8527 6.52183C13.2698 6.83115 13.2951 7.50748 12.9093 8.02947Z" fill="#4C4C4C"/>
<path d="M5.45858 5.56135C6.59249 5.56135 7.51502 4.51033 7.51502 3.21844C7.51502 1.92624 6.59249 0.875 5.45858 0.875C4.32477 0.875 3.40234 1.92624 3.40234 3.21844C3.40234 4.51033 4.32477 5.56135 5.45858 5.56135ZM5.45858 1.69564C6.13992 1.69564 6.69438 2.3788 6.69438 3.21844C6.69438 4.05777 6.13992 4.74072 5.45858 4.74072C4.77722 4.74072 4.22298 4.05777 4.22298 3.21844C4.22298 2.3788 4.77722 1.69564 5.45858 1.69564Z" fill="#4C4C4C"/>
<path d="M9.00927 6.13685C9.18365 6.19474 9.36172 6.22241 9.5389 6.22241C10.3659 6.22241 11.1717 5.62052 11.4792 4.69553C11.6563 4.16308 11.6447 3.60008 11.4465 3.11035C11.239 2.59776 10.8546 2.22563 10.3639 2.06242C9.87324 1.89943 9.34229 1.96736 8.86918 2.25383C8.41728 2.52758 8.071 2.9715 7.89422 3.50395C7.52091 4.62718 8.02111 5.8083 9.00927 6.13685ZM8.67298 3.76276C8.78842 3.41508 9.00909 3.12861 9.29443 2.95579C9.55833 2.79589 9.84629 2.7552 10.1051 2.84118C10.3638 2.92727 10.5699 3.13214 10.6858 3.41818C10.8108 3.72729 10.8161 4.08896 10.7005 4.43663C10.4699 5.13048 9.8273 5.54384 9.26818 5.35809C8.7094 5.17223 8.44237 4.4566 8.67298 3.76276Z" fill="#4C4C4C"/>
</g>
</g>
<defs>
<clipPath id="clip0_12634_16891">
<rect width="14" height="14" fill="white"/>
</clipPath>
</defs>
</svg>
