<svg width="24" height="24" viewBox="0 0 24 24" fill="none" xmlns="http://www.w3.org/2000/svg">
<path d="M22 16.92V19.92C22.0011 20.1985 21.9441 20.4742 21.8325 20.7292C21.721 20.9842 21.5574 21.2131 21.352 21.4015C21.1467 21.5899 20.9041 21.7339 20.6397 21.8242C20.3753 21.9145 20.095 21.9492 19.816 21.926C16.742 21.585 13.787 20.534 11.19 18.85C8.77382 17.3147 6.72533 15.2662 5.19 12.85C3.49997 10.2412 2.44824 7.38199 2.1 4.31C2.07687 4.03089 2.11188 3.75059 2.20248 3.48619C2.29308 3.22179 2.43738 2.97921 2.626 2.774C2.81462 2.56879 3.04352 2.40516 3.29852 2.29364C3.55352 2.18212 3.82922 2.12513 4.108 2.126H7.108C7.59585 2.12397 8.06808 2.31533 8.409 2.659C8.75092 3.00267 8.93157 3.47488 8.908 3.962C9.00491 5.11817 9.32493 6.25074 9.85 7.31C10.0396 7.72189 10.0532 8.19299 9.887 8.619C9.72076 9.04501 9.38674 9.39245 8.958 9.586L7.218 10.326C8.61558 12.8122 10.6878 14.8844 13.174 16.282L13.914 14.542C14.1076 14.1133 14.455 13.7793 14.881 13.613C15.307 13.4468 15.7781 13.4604 16.19 13.65C17.2493 14.1751 18.3818 14.4951 19.538 14.592C20.0251 14.5684 20.4973 14.7491 20.841 15.091C21.1847 15.4329 21.3761 15.9051 21.374 16.393L22 16.92Z" fill="white"/>
</svg>

