<svg width="9" height="12" viewBox="0 0 9 12" fill="none" xmlns="http://www.w3.org/2000/svg">
<g clip-path="url(#clip0_12626_16642)">
<path d="M7.38495 2.66666H6.02571C5.90708 2.18125 5.69774 1.72743 5.41066 1.33333H7.38495C7.54808 1.33333 7.70451 1.26309 7.81986 1.13807C7.9352 1.01304 8 0.843475 8 0.666665C8 0.489854 7.9352 0.320285 7.81986 0.195262C7.70451 0.0702377 7.54808 0 7.38495 0H0.619461C0.456341 0 0.299902 0.0702377 0.184558 0.195262C0.0692151 0.320285 0.00441582 0.489854 0.00441582 0.666665C0.00441582 0.843475 0.0692151 1.01304 0.184558 1.13807C0.299902 1.26309 0.456341 1.33333 0.619461 1.33333H2.77212C3.17819 1.33487 3.57559 1.46089 3.9184 1.69682C4.26122 1.93275 4.53548 2.26897 4.70951 2.66666H0.619461C0.456341 2.66666 0.299902 2.7369 0.184558 2.86192C0.0692151 2.98694 0.00441582 3.15651 0.00441582 3.33332C0.00441582 3.51013 0.0692151 3.6797 0.184558 3.80473C0.299902 3.92975 0.456341 3.99999 0.619461 3.99999H4.92478C4.85104 4.55372 4.59621 5.0603 4.20672 5.42742C3.81723 5.79453 3.31902 5.99773 2.80287 5.99998H0.619461C0.590831 5.99686 0.561985 5.99686 0.533355 5.99998C0.492563 5.9936 0.451137 5.9936 0.410345 5.99998C0.368461 6.01556 0.329045 6.03804 0.293487 6.06665L0.219682 6.11332C0.186297 6.14661 0.15732 6.18475 0.133575 6.22665C0.112763 6.25604 0.0942478 6.28726 0.0782211 6.31998C0.0726543 6.35975 0.0726543 6.40021 0.0782211 6.43998C0.0343921 6.50648 0.00880587 6.58506 0.00441582 6.66665C0.0015384 6.69768 0.0015384 6.72895 0.00441582 6.75998C-0.00147194 6.80419 -0.00147194 6.8491 0.00441582 6.89331C0.0187858 6.93871 0.0395313 6.98144 0.0659203 7.01998C0.0659203 7.01998 0.0659204 7.07331 0.108974 7.09998L3.79924 11.7666C3.90527 11.901 4.0562 11.9842 4.21884 11.998C4.38147 12.0117 4.54249 11.9549 4.66646 11.84C4.79043 11.725 4.8672 11.5614 4.87989 11.3852C4.89258 11.2089 4.84014 11.0343 4.73411 10.9L1.96026 7.33331H2.77212C3.61846 7.33711 4.43536 6.99689 5.0616 6.37979C5.68785 5.7627 6.07793 4.91357 6.15487 3.99999H7.38495C7.54808 3.99999 7.70451 3.92975 7.81986 3.80473C7.9352 3.6797 8 3.51013 8 3.33332C8 3.15651 7.9352 2.98694 7.81986 2.86192C7.70451 2.7369 7.54808 2.66666 7.38495 2.66666Z" fill="#4C4C4C"/>
</g>
<defs>
<clipPath id="clip0_12626_16642">
<rect width="9" height="12" fill="white"/>
</clipPath>
</defs>
</svg>
