<svg width="16" height="16" viewBox="0 0 16 16" fill="none" xmlns="http://www.w3.org/2000/svg">
<path d="M2.41697 10.0016C3.34012 10.926 4.56948 11.481 5.87343 11.5619C7.17739 11.6429 8.46592 11.2441 9.4963 10.4409L13.0416 13.9862C13.1674 14.1077 13.3358 14.1749 13.5106 14.1734C13.6854 14.1718 13.8526 14.1017 13.9762 13.9781C14.0998 13.8545 14.1699 13.6873 14.1714 13.5125C14.1729 13.3377 14.1057 13.1693 13.9843 13.0436L10.439 9.49825C11.2778 8.42169 11.6744 7.06568 11.5479 5.70676C11.4213 4.34784 10.7812 3.08838 9.75795 2.18523C8.73473 1.28207 7.40552 0.803258 6.04141 0.846436C4.67729 0.889613 3.38102 1.45153 2.41697 2.41758C1.91883 2.91546 1.52367 3.50661 1.25407 4.15726C0.984469 4.8079 0.845703 5.50529 0.845703 6.20958C0.845703 6.91387 0.984469 7.61126 1.25407 8.26191C1.52367 8.91255 1.91883 9.5037 2.41697 10.0016ZM3.35963 3.36158C4.01868 2.70255 4.88585 2.29241 5.81338 2.20105C6.74092 2.10968 7.67144 2.34275 8.44641 2.86053C9.22137 3.37831 9.79284 4.14878 10.0634 5.04066C10.334 5.93254 10.287 6.89065 9.93041 7.75176C9.5738 8.61286 8.92965 9.32368 8.10772 9.76311C7.28578 10.2025 6.33692 10.3434 5.42278 10.1617C4.50864 9.97993 3.68579 9.48686 3.09443 8.76647C2.50307 8.04609 2.17977 7.14294 2.17963 6.21092C2.1778 5.6813 2.28117 5.15659 2.48373 4.66724C2.68629 4.17788 2.98402 3.73363 3.35963 3.36025V3.36158Z" fill="#222222"/>
</svg>
