<svg width="21" height="22" viewBox="0 0 21 22" fill="none" xmlns="http://www.w3.org/2000/svg">
<path opacity="0.4" d="M19.9808 10.2327V16.2775C19.9808 19.0627 17.7203 21.3232 14.935 21.3232H6.11502C3.32976 21.3232 1.06927 19.0627 1.06927 16.2775V10.3033C1.83622 11.1308 2.9261 11.6051 4.10681 11.6051C5.37834 11.6051 6.59941 10.9693 7.36637 9.95009C8.05259 10.9693 9.22321 11.6051 10.525 11.6051C11.8167 11.6051 12.9672 10.9996 13.6635 9.99046C14.4405 10.9895 15.6414 11.6051 16.8928 11.6051C18.1138 11.6051 19.2239 11.1106 19.9808 10.2327Z" fill="#034703"/>
<path d="M13.5428 0H7.48793L6.74116 7.42735C6.68061 8.11357 6.78152 8.75943 7.03381 9.34474C7.61912 10.7172 8.99156 11.6052 10.5255 11.6052C12.0796 11.6052 13.4217 10.7374 14.0272 9.35483C14.2089 8.9209 14.3199 8.41632 14.33 7.90165V7.70991L13.5428 0Z" fill="#034703"/>
<path opacity="0.6" d="M20.9797 7.08424L20.687 4.28889C20.2632 1.24126 18.8807 0 15.9239 0H12.0487L12.7955 7.56863C12.8056 7.66955 12.8157 7.78055 12.8157 7.97229C12.8762 8.49705 13.0377 8.98144 13.2799 9.41538C14.0065 10.7475 15.4193 11.6052 16.8926 11.6052C18.2348 11.6052 19.4458 11.0098 20.2027 9.96032C20.8081 9.153 21.0806 8.13376 20.9797 7.08424Z" fill="#034703"/>
<path opacity="0.6" d="M5.06527 0C2.09837 0 0.72592 1.24126 0.291985 4.31917L0.0195144 7.09433C-0.0814007 8.17412 0.211253 9.22364 0.847018 10.0411C1.61397 11.0401 2.79468 11.6052 4.10658 11.6052C5.57994 11.6052 6.99275 10.7475 7.70925 9.43556C7.97163 8.98145 8.14318 8.45669 8.19364 7.91174L8.98078 0.0100915H5.06527V0Z" fill="#034703"/>
<path d="M9.8693 15.5508C8.58768 15.682 7.61889 16.7718 7.61889 18.0636V21.3231H13.4215V18.4168C13.4316 16.3076 12.1903 15.3086 9.8693 15.5508Z" fill="#034703"/>
</svg>
