<svg width="74" height="12" viewBox="0 0 74 12" fill="none" xmlns="http://www.w3.org/2000/svg">
<path d="M1.97332 6.90555H0.986661C0.441743 6.90555 0 7.34729 0 7.89221V9.86553C0 10.4104 0.441743 10.8522 0.986661 10.8522H1.97332C2.51824 10.8522 2.95998 10.4104 2.95998 9.86553V7.89221C2.95998 7.34729 2.51824 6.90555 1.97332 6.90555Z" fill="black"/>
<path d="M6.906 4.93169H5.91934C5.37442 4.93169 4.93268 5.37343 4.93268 5.91835V9.86499C4.93268 10.4099 5.37442 10.8517 5.91934 10.8517H6.906C7.45092 10.8517 7.89266 10.4099 7.89266 9.86499V5.91835C7.89266 5.37343 7.45092 4.93169 6.906 4.93169Z" fill="black"/>
<path d="M11.8397 2.9598H10.853C10.3081 2.9598 9.86634 3.40155 9.86634 3.94646V9.86643C9.86634 10.4113 10.3081 10.8531 10.853 10.8531H11.8397C12.3846 10.8531 12.8263 10.4113 12.8263 9.86643V3.94646C12.8263 3.40155 12.3846 2.9598 11.8397 2.9598Z" fill="black"/>
<path d="M16.7733 0.985944H15.7867C15.2417 0.985944 14.8 1.42769 14.8 1.9726V9.86589C14.8 10.4108 15.2417 10.8526 15.7867 10.8526H16.7733C17.3182 10.8526 17.76 10.4108 17.76 9.86589V1.9726C17.76 1.42769 17.3182 0.985944 16.7733 0.985944Z" fill="black"/>
<g clip-path="url(#clip0_0_24)">
<path d="M34.0302 11.6528C34.0789 11.6561 34.1278 11.6491 34.1736 11.6321C34.2193 11.6151 34.261 11.5886 34.2957 11.5543C34.3707 11.4862 36.0409 9.80681 36.4198 9.47233C36.4677 9.39933 36.4971 9.31554 36.5048 9.22856C36.4926 9.13259 36.4455 9.04448 36.3726 8.98093C35.6939 8.47093 34.8679 8.19516 34.0189 8.19516C33.1699 8.19516 32.344 8.47093 31.6652 8.98093C31.611 9.05327 31.5768 9.13872 31.5665 9.22856C31.5601 9.27426 31.566 9.32092 31.5833 9.36369C31.6007 9.40646 31.6289 9.44391 31.6652 9.47233C31.755 9.571 33.7214 11.4744 33.8151 11.5543C33.9089 11.6342 33.9109 11.6528 34.0302 11.6528Z" fill="black"/>
<path d="M29.106 6.4019C29.1134 6.48916 29.1516 6.57098 29.2136 6.63279L30.3532 7.91549C30.4135 7.97246 30.4932 8.00414 30.5762 8.00414C30.6591 8.00414 30.7389 7.97246 30.7992 7.91549C31.6583 7.04045 32.8289 6.54133 34.0551 6.52728C35.2795 6.54976 36.4472 7.04758 37.3112 7.91549C37.3712 7.97104 37.4499 8.00185 37.5317 8.00185C37.6134 8.00185 37.6922 7.97104 37.7522 7.91549L38.8987 6.63279C38.9494 6.5661 38.9786 6.48558 38.9825 6.4019C38.9873 6.35866 38.9824 6.31488 38.9678 6.27387C38.9533 6.23286 38.9296 6.19569 38.8987 6.16511C38.2807 5.49983 37.5322 4.96923 36.6998 4.60635C35.8674 4.24347 34.9692 4.05617 34.0611 4.05617C33.1531 4.05617 32.2547 4.24347 31.4224 4.60635C30.59 4.96923 29.8415 5.49983 29.2235 6.16511C29.1426 6.28055 29.106 6.27067 29.106 6.4019Z" fill="black"/>
<path d="M26.2419 3.34837C26.1798 3.44704 26.1433 3.47069 26.1433 3.59106C26.152 3.67862 26.1863 3.76161 26.2419 3.82978C26.2419 3.82978 27.196 4.85995 27.4397 5.03854C27.5057 5.0891 27.5865 5.11646 27.6696 5.11646C27.7528 5.11646 27.8335 5.0891 27.8994 5.03854C29.5524 3.44788 31.7572 2.55924 34.0513 2.55924C36.3453 2.55924 38.5502 3.44788 40.2032 5.03854C40.2032 5.03854 40.4617 5.226 40.6471 5.03854C40.8326 4.85107 41.8311 3.82978 41.8311 3.82978C41.8871 3.76185 41.9216 3.67873 41.9299 3.59106C41.9343 3.54564 41.9277 3.49978 41.9105 3.45749C41.8933 3.41521 41.866 3.37778 41.8311 3.34837C39.7422 1.32236 36.9466 0.189301 34.0366 0.189301C31.1265 0.189301 28.3308 1.32236 26.2419 3.34837Z" fill="black"/>
</g>
<g clip-path="url(#clip1_0_24)">
<path opacity="0.4" d="M53.1452 0.49333C52.5061 0.509112 51.8993 0.777605 51.4579 1.23997C51.0164 1.70233 50.7762 2.32086 50.79 2.95998V8.87995C50.7762 9.51891 51.0163 10.1373 51.4575 10.5996C51.8988 11.062 52.5053 11.3306 53.1442 11.3466H68.2134C68.8525 11.3308 69.4593 11.0623 69.9008 10.6C70.3422 10.1376 70.5824 9.51907 70.5686 8.87995V2.95998C70.5824 2.32086 70.3422 1.70233 69.9008 1.23997C69.4593 0.777605 68.8525 0.509112 68.2134 0.49333H53.1452ZM53.1452 0H68.2134C68.9806 0.0181086 69.7091 0.340057 70.239 0.895091C70.7689 1.45013 71.0567 2.19283 71.0392 2.95998V8.87995C71.0567 9.6471 70.7689 10.3898 70.239 10.9448C69.7091 11.4999 68.9806 11.8218 68.2134 11.8399H53.1452C52.378 11.8218 51.6495 11.4999 51.1196 10.9448C50.5897 10.3898 50.3019 9.6471 50.3194 8.87995V2.95998C50.3019 2.19283 50.5897 1.45013 51.1196 0.895091C51.6495 0.340057 52.378 0.0181086 53.1452 0V0Z" fill="black"/>
<rect x="52.2925" y="1.97189" width="16.7732" height="7.89329" rx="0.977273" fill="black"/>
<path opacity="0.4" d="M72.0261 3.94575C72.5495 3.94575 73.0514 4.15365 73.4215 4.52372C73.7916 4.89379 73.9995 5.39571 73.9995 5.91907C73.9995 6.44243 73.7916 6.94435 73.4215 7.31442C73.0514 7.68449 72.5495 7.89239 72.0261 7.89239V3.94575Z" fill="black"/>
</g>
<defs>
<clipPath id="clip0_0_24">
<rect width="15.6364" height="11.3549" fill="white" transform="translate(26.1462 0.187329) scale(1.00961)"/>
</clipPath>
<clipPath id="clip1_0_24">
<rect width="23.4545" height="11.7273" fill="white" transform="translate(50.3196) scale(1.00961)"/>
</clipPath>
</defs>
</svg>
