<svg width="40" height="40" viewBox="0 0 40 40" fill="none" xmlns="http://www.w3.org/2000/svg">
<rect width="40" height="40" rx="4" fill="#FFE9DA"/>
<g clip-path="url(#clip0_12635_27356)">
<path fill-rule="evenodd" clip-rule="evenodd" d="M24.7856 7.75302C26.0313 8.86046 26.8584 10.4557 26.9834 12.463C31.0725 13.5638 31.7618 16.2777 33.1896 21.8996C33.2732 22.2286 33.3593 22.5675 33.4486 22.9167C35.6902 32.8333 31.0751 34 20 34C8.92498 34 4.30987 32.8333 6.55129 22.9167C6.64075 22.5675 6.72686 22.2284 6.81043 21.8993C8.23824 16.2777 8.92752 13.5638 13.0165 12.463C13.1417 10.4557 13.9686 8.86046 15.2145 7.75302C16.548 6.56766 18.2931 6 20 6C21.707 6 23.4519 6.56766 24.7856 7.75302ZM20 11.8333C18.1993 11.8333 16.6879 11.895 15.4096 12.0359C15.596 10.9114 16.1075 10.0811 16.7647 9.49698C17.6186 8.7379 18.7903 8.33333 20 8.33333C21.2097 8.33333 22.3814 8.7379 23.2353 9.49698C23.8925 10.0811 24.4041 10.9114 24.5904 12.0359C23.3122 11.895 21.8008 11.8333 20 11.8333ZM14.1667 16.5C13.5223 16.5 13 17.0223 13 17.6667C13 18.311 13.5223 18.8333 14.1667 18.8333H25.8333C26.4777 18.8333 27 18.311 27 17.6667C27 17.0223 26.4777 16.5 25.8333 16.5H14.1667Z" fill="url(#paint0_linear_12635_27356)"/>
</g>
<defs>
<linearGradient id="paint0_linear_12635_27356" x1="6" y1="6" x2="34" y2="34" gradientUnits="userSpaceOnUse">
<stop stop-color="#FF9D6C"/>
<stop offset="0.958333" stop-color="#DF7122"/>
</linearGradient>
<clipPath id="clip0_12635_27356">
<rect width="28" height="28" fill="white" transform="translate(6 6)"/>
</clipPath>
</defs>
</svg>
