<svg width="17" height="21" viewBox="0 0 17 21" fill="none" xmlns="http://www.w3.org/2000/svg">
<path d="M16.5732 5.50788L12.3072 5.97326C12.1865 5.54235 11.9754 5.13729 11.6737 4.75809C11.3807 4.37889 10.9843 4.07294 10.4844 3.84024C9.98457 3.60755 9.37267 3.49121 8.64874 3.49121C7.67488 3.49121 6.85614 3.70235 6.19254 4.12465C5.53755 4.54694 5.21437 5.0942 5.22299 5.76642C5.21437 6.34385 5.42552 6.81354 5.85643 7.17551C6.29596 7.53747 7.01989 7.8348 8.02823 8.0675L11.4152 8.79143C13.294 9.19649 14.6901 9.83855 15.6037 10.7176C16.5258 11.5967 16.9912 12.7472 16.9998 14.1692C16.9912 15.4189 16.6249 16.522 15.901 17.4786C15.1857 18.4266 14.1903 19.1678 12.9148 19.7021C11.6393 20.2365 10.1742 20.5036 8.51947 20.5036C6.08912 20.5036 4.13278 19.9952 2.65044 18.9782C1.1681 17.9526 0.284728 16.5263 0.000326007 14.6992L4.56369 14.2597C4.77053 15.156 5.21006 15.8325 5.88228 16.2893C6.55451 16.7461 7.42926 16.9745 8.50654 16.9745C9.61829 16.9745 10.5103 16.7461 11.1825 16.2893C11.8633 15.8325 12.2038 15.268 12.2038 14.5958C12.2038 14.027 11.984 13.5573 11.5445 13.1867C11.1136 12.8162 10.4413 12.5318 9.5278 12.3335L6.14083 11.6225C4.2362 11.2261 2.82711 10.5582 1.91358 9.61878C1.00004 8.67077 0.547585 7.47284 0.556203 6.02497C0.547585 4.80118 0.879388 3.74114 1.55161 2.84484C2.23245 1.93992 3.17615 1.24184 4.38271 0.750602C5.59788 0.250744 6.99835 0.000814679 8.5841 0.000814679C10.911 0.000814679 12.7424 0.496364 14.0782 1.48746C15.4227 2.47856 16.2543 3.8187 16.5732 5.50788Z" fill="white"/>
</svg>
