<svg width="12" height="12" viewBox="0 0 12 12" fill="none" xmlns="http://www.w3.org/2000/svg">
<g clip-path="url(#clip0_12634_16722)">
<path d="M5.89688 0.09375H11.4825C11.7169 0.09375 11.9062 0.283125 11.9062 0.5175V1.47563C11.9062 1.71 11.7169 1.89937 11.4825 1.89937H5.895C5.66062 1.89937 5.47125 1.71 5.47125 1.47563V0.5175C5.47312 0.283125 5.6625 0.09375 5.89688 0.09375Z" fill="#F0B11B"/>
<path d="M11.9004 1.52246C11.876 1.73434 11.6998 1.89934 11.4823 1.89934H5.89476C5.67727 1.89934 5.49914 1.73434 5.47664 1.52246H11.9004Z" fill="#D19916"/>
<path d="M5.89688 1.89941H11.4825C11.7169 1.89941 11.9062 2.08879 11.9062 2.32316V3.28129C11.9062 3.51566 11.7169 3.70504 11.4825 3.70504H5.895C5.66062 3.70504 5.47125 3.51566 5.47125 3.28129V2.32316C5.47312 2.08879 5.6625 1.89941 5.89688 1.89941Z" fill="#F0B11B"/>
<path d="M11.9004 3.32617C11.876 3.53805 11.6998 3.70305 11.4823 3.70305H5.89476C5.67727 3.70305 5.49914 3.53805 5.47664 3.32617H11.9004Z" fill="#D19916"/>
<path d="M5.89688 3.70312H11.4825C11.7169 3.70312 11.9062 3.8925 11.9062 4.12688V5.085C11.9062 5.31938 11.7169 5.50875 11.4825 5.50875H5.895C5.66062 5.50875 5.47125 5.31938 5.47125 5.085V4.12688C5.47312 3.8925 5.6625 3.70312 5.89688 3.70312Z" fill="#F0B11B"/>
<path d="M11.9004 5.13184C11.876 5.34371 11.6998 5.50871 11.4823 5.50871H5.89476C5.67727 5.50871 5.49914 5.34371 5.47664 5.13184H11.9004Z" fill="#D19916"/>
<path d="M5.89688 5.50879H11.4825C11.7169 5.50879 11.9062 5.69816 11.9062 5.93254V6.89066C11.9062 7.12316 11.7169 7.31254 11.4825 7.31254H5.895C5.66062 7.31254 5.47125 7.12316 5.47125 6.88879V5.93066C5.47312 5.69816 5.6625 5.50879 5.89688 5.50879Z" fill="#F0B11B"/>
<path d="M11.9004 6.93555C11.8779 7.14742 11.6998 7.31242 11.4823 7.31242H5.89476C5.67727 7.31242 5.49914 7.14742 5.47664 6.93555H11.9004Z" fill="#D19916"/>
<path d="M5.89688 7.3125H11.4825C11.7169 7.3125 11.9062 7.50187 11.9062 7.73625V8.69437C11.9062 8.92875 11.7169 9.11813 11.4825 9.11813H5.895C5.66062 9.11813 5.47125 8.92875 5.47125 8.69437V7.73625C5.47312 7.50187 5.6625 7.3125 5.89688 7.3125Z" fill="#F0B11B"/>
<path d="M11.9004 8.74121C11.876 8.95309 11.6998 9.11809 11.4823 9.11809H5.89476C5.67727 9.11809 5.49914 8.95309 5.47664 8.74121H11.9004Z" fill="#D19916"/>
<path d="M5.89688 9.11816H11.4825C11.7169 9.11816 11.9062 9.30754 11.9062 9.54191V10.5C11.9062 10.7344 11.7169 10.9238 11.4825 10.9238H5.895C5.66062 10.9238 5.47125 10.7344 5.47125 10.5V9.54191C5.47312 9.30754 5.6625 9.11816 5.89688 9.11816Z" fill="#F0B11B"/>
<path d="M11.9004 10.5449C11.876 10.7568 11.6998 10.9218 11.4823 10.9218H5.89476C5.67727 10.9218 5.49914 10.7568 5.47664 10.5449H11.9004Z" fill="#D19916"/>
<path d="M3.67664 11.9065C1.69774 11.9065 0.0935154 10.3023 0.0935154 8.32336C0.0935154 6.34445 1.69774 4.74023 3.67664 4.74023C5.65555 4.74023 7.25977 6.34445 7.25977 8.32336C7.25977 10.3023 5.65555 11.9065 3.67664 11.9065Z" fill="#D19916"/>
<path d="M3.67672 11.3458C2.00744 11.3458 0.654219 9.99256 0.654219 8.32328C0.654219 6.654 2.00744 5.30078 3.67672 5.30078C5.346 5.30078 6.69922 6.654 6.69922 8.32328C6.69922 9.99256 5.346 11.3458 3.67672 11.3458Z" fill="#F0B11B"/>
<path d="M1.91965 6.67734V6.15234H3.4684H5.03777H5.49902V6.67734H5.03777H3.4684C3.10465 6.67734 2.79902 6.91359 2.6884 7.24172H5.49902V7.76672H2.69027C2.8009 8.09297 3.10652 8.33109 3.47027 8.33109H4.57277H5.04152H5.0584V8.85609H5.04152H4.7959L2.62652 11.0255L2.25527 10.6542L4.04777 8.85422H3.4684C2.81402 8.85422 2.26652 8.38547 2.14465 7.76484H1.91965V7.23984H2.14465C2.1859 7.02984 2.27965 6.84047 2.40715 6.67547H1.91965V6.67734Z" fill="#F1E9E5"/>
</g>
<defs>
<clipPath id="clip0_12634_16722">
<rect width="12" height="12" fill="white" transform="matrix(-1 0 0 1 12 0)"/>
</clipPath>
</defs>
</svg>
