<svg width="16" height="16" viewBox="0 0 16 16" fill="none" xmlns="http://www.w3.org/2000/svg">
<g clip-path="url(#clip0_12738_13397)">
<path d="M5.99899 12.502C5.93319 12.5024 5.86796 12.4898 5.80704 12.4649C5.74612 12.44 5.69071 12.4034 5.64399 12.357C5.59713 12.3106 5.55993 12.2553 5.53455 12.1943C5.50916 12.1334 5.49609 12.0681 5.49609 12.002C5.49609 11.936 5.50916 11.8707 5.53455 11.8098C5.55993 11.7488 5.59713 11.6935 5.64399 11.647L9.29399 8.00205L5.64399 4.35705C5.54984 4.26289 5.49695 4.1352 5.49695 4.00205C5.49695 3.93612 5.50993 3.87083 5.53516 3.80992C5.56039 3.74901 5.59737 3.69367 5.64399 3.64705C5.69061 3.60043 5.74596 3.56345 5.80687 3.53822C5.86778 3.51299 5.93306 3.5 5.99899 3.5C6.13214 3.5 6.25984 3.55289 6.35399 3.64705L10.354 7.64705C10.4009 7.69353 10.4381 7.74883 10.4634 7.80976C10.4888 7.87069 10.5019 7.93604 10.5019 8.00205C10.5019 8.06805 10.4888 8.1334 10.4634 8.19433C10.4381 8.25526 10.4009 8.31056 10.354 8.35705L6.35399 12.357C6.30727 12.4034 6.25186 12.44 6.19095 12.4649C6.13003 12.4898 6.0648 12.5024 5.99899 12.502Z" fill="black"/>
</g>
<defs>
<clipPath id="clip0_12738_13397">
<rect width="16" height="16" fill="white"/>
</clipPath>
</defs>
</svg>
