<svg width="20" height="20" viewBox="0 0 20 20" fill="none" xmlns="http://www.w3.org/2000/svg">
<path d="M10.0003 18.3327C5.39783 18.3327 1.66699 14.6018 1.66699 9.99935C1.66699 5.39685 5.39783 1.66602 10.0003 1.66602C14.6028 1.66602 18.3337 5.39685 18.3337 9.99935C18.3337 14.6018 14.6028 18.3327 10.0003 18.3327ZM10.0003 16.666C11.7684 16.666 13.4641 15.9636 14.7144 14.7134C15.9646 13.4632 16.667 11.7675 16.667 9.99935C16.667 8.23124 15.9646 6.53555 14.7144 5.2853C13.4641 4.03506 11.7684 3.33268 10.0003 3.33268C8.23222 3.33268 6.53652 4.03506 5.28628 5.2853C4.03604 6.53555 3.33366 8.23124 3.33366 9.99935C3.33366 11.7675 4.03604 13.4632 5.28628 14.7134C6.53652 15.9636 8.23222 16.666 10.0003 16.666ZM10.0003 8.33268C10.2213 8.33268 10.4333 8.42048 10.5896 8.57676C10.7459 8.73304 10.8337 8.945 10.8337 9.16602V13.3327C10.8337 13.5537 10.7459 13.7657 10.5896 13.9219C10.4333 14.0782 10.2213 14.166 10.0003 14.166C9.77931 14.166 9.56735 14.0782 9.41107 13.9219C9.25479 13.7657 9.16699 13.5537 9.16699 13.3327V9.16602C9.16699 8.945 9.25479 8.73304 9.41107 8.57676C9.56735 8.42048 9.77931 8.33268 10.0003 8.33268ZM10.0003 7.49935C9.77931 7.49935 9.56735 7.41155 9.41107 7.25527C9.25479 7.09899 9.16699 6.88703 9.16699 6.66602C9.16699 6.445 9.25479 6.23304 9.41107 6.07676C9.56735 5.92048 9.77931 5.83268 10.0003 5.83268C10.2213 5.83268 10.4333 5.92048 10.5896 6.07676C10.7459 6.23304 10.8337 6.445 10.8337 6.66602C10.8337 6.88703 10.7459 7.09899 10.5896 7.25527C10.4333 7.41155 10.2213 7.49935 10.0003 7.49935Z" fill="#4C4C4C"/>
</svg>
