<svg width="20" height="20" viewBox="0 0 20 20" fill="none" xmlns="http://www.w3.org/2000/svg">
<path d="M12.5003 9.16667C12.7213 9.16667 12.9333 9.07887 13.0896 8.92259C13.2459 8.76631 13.3337 8.55435 13.3337 8.33333C13.3337 8.11232 13.2459 7.90036 13.0896 7.74408C12.9333 7.5878 12.7213 7.5 12.5003 7.5C12.2793 7.5 12.0674 7.5878 11.9111 7.74408C11.7548 7.90036 11.667 8.11232 11.667 8.33333C11.667 8.55435 11.7548 8.76631 11.9111 8.92259C12.0674 9.07887 12.2793 9.16667 12.5003 9.16667ZM8.33366 8.33333C8.33366 8.55435 8.24586 8.76631 8.08958 8.92259C7.9333 9.07887 7.72134 9.16667 7.50033 9.16667C7.27931 9.16667 7.06735 9.07887 6.91107 8.92259C6.75479 8.76631 6.66699 8.55435 6.66699 8.33333C6.66699 8.11232 6.75479 7.90036 6.91107 7.74408C7.06735 7.5878 7.27931 7.5 7.50033 7.5C7.72134 7.5 7.9333 7.5878 8.08958 7.74408C8.24586 7.90036 8.33366 8.11232 8.33366 8.33333Z" fill="#4C4C4C"/>
<path fill-rule="evenodd" clip-rule="evenodd" d="M6.87486 4.39602V4.16602C6.87486 3.33721 7.2041 2.54236 7.79015 1.95631C8.3762 1.37026 9.17106 1.04102 9.99986 1.04102C10.8287 1.04102 11.6235 1.37026 12.2096 1.95631C12.7956 2.54236 13.1249 3.33721 13.1249 4.16602V4.39602C13.6732 4.41268 14.1624 4.44352 14.5957 4.49768C15.5965 4.62435 16.4074 4.88935 17.0332 5.50102C17.2421 5.70546 17.4265 5.93046 17.5865 6.17602C18.0632 6.90935 18.1649 7.75602 18.0924 8.76268C18.0207 9.74768 17.774 10.9843 17.4599 12.5535L17.4432 12.6327C17.2265 13.7218 17.0532 14.5885 16.8382 15.271C16.6174 15.9727 16.3349 16.541 15.8632 17.001C15.7004 17.1593 15.5254 17.3027 15.3382 17.431C14.7949 17.8035 14.1824 17.9685 13.4507 18.0477C12.7399 18.1244 11.8565 18.1243 10.7457 18.1243H9.25403C8.14319 18.1243 7.25986 18.1244 6.54903 18.0477C5.81736 17.9685 5.20486 17.8035 4.66153 17.431C4.47513 17.3022 4.29955 17.1584 4.13653 17.001C3.66486 16.541 3.38236 15.9727 3.16153 15.271C2.94736 14.5885 2.77403 13.7218 2.55569 12.6327L2.53986 12.5535C2.22653 10.9843 1.97903 9.74768 1.90819 8.76268C1.83486 7.75602 1.93653 6.90935 2.41319 6.17602C2.57247 5.93151 2.75801 5.70516 2.96653 5.50102C3.5932 4.88935 4.4032 4.62435 5.40403 4.49768C5.83736 4.44352 6.32653 4.41268 6.87486 4.39602ZM8.12486 4.16602C8.12486 3.66873 8.32241 3.19182 8.67404 2.84019C9.02567 2.48856 9.50258 2.29102 9.99986 2.29102C10.4971 2.29102 10.9741 2.48856 11.3257 2.84019C11.6773 3.19182 11.8749 3.66873 11.8749 4.16602V4.37602C11.5215 4.3749 11.1482 4.37435 10.7549 4.37435H9.2457C8.85181 4.37435 8.4782 4.3749 8.12486 4.37602V4.16602ZM3.83986 6.39518C4.18569 6.05768 4.67986 5.84935 5.5607 5.73768C6.45236 5.62518 7.63569 5.62435 9.2907 5.62435H10.7099C12.3649 5.62435 13.5465 5.62518 14.439 5.73768C15.3199 5.84935 15.814 6.05768 16.1599 6.39518C16.3026 6.53518 16.4288 6.68907 16.5382 6.85685C16.8015 7.26185 16.909 7.78768 16.8457 8.67352C16.7807 9.57018 16.5499 10.7294 16.2257 12.3527C15.999 13.4852 15.8382 14.286 15.6457 14.8952C15.4582 15.4927 15.2582 15.8452 14.9907 16.106C14.8797 16.214 14.7599 16.3124 14.6324 16.4002C14.324 16.611 13.939 16.7377 13.3165 16.8052C12.6807 16.8735 11.864 16.8743 10.709 16.8743H9.29153C8.13653 16.8743 7.31986 16.8735 6.6832 16.8052C6.06153 16.7385 5.67736 16.611 5.36903 16.4002C5.2412 16.3122 5.12104 16.2135 5.00986 16.1052C4.74236 15.8452 4.5432 15.4927 4.35486 14.8952C4.16319 14.2852 4.00153 13.4852 3.7757 12.3527C3.4507 10.7294 3.21986 9.56935 3.1557 8.67268C3.09153 7.78768 3.19903 7.26185 3.46236 6.85685C3.57135 6.68969 3.69821 6.53489 3.8407 6.39518" fill="#4C4C4C"/>
</svg>
