<svg width="20" height="20" viewBox="0 0 20 20" fill="none" xmlns="http://www.w3.org/2000/svg">
<path d="M2.50405 4.09479C2.27295 4.14349 2.07764 4.28146 1.91489 4.50464C1.64798 4.8739 1.66751 4.33826 1.66751 11.1554C1.66751 18.0781 1.64147 17.4572 1.95721 17.8549C2.08741 18.0172 2.19157 18.1024 2.31852 18.1592C2.49429 18.2323 2.69935 18.2363 10.0003 18.2363C17.3013 18.2363 17.5064 18.2323 17.6821 18.1592C17.8091 18.1024 17.9132 18.0172 18.0434 17.8549C18.3592 17.4572 18.3331 18.0781 18.3331 11.1554C18.3331 5.57996 18.3299 5.06867 18.2778 4.88201C18.2062 4.61825 17.9198 4.26117 17.6984 4.1516C17.5389 4.07451 17.3566 4.07451 10.098 4.07045C6.00643 4.06639 2.59194 4.07856 2.50405 4.09479ZM17.464 4.99158C17.6366 5.08896 17.6496 5.17418 17.6496 6.32254V7.38164H10.0003H2.35107V6.31443C2.35432 5.17824 2.36083 5.10925 2.51707 5.00375C2.58217 4.95911 3.91347 4.951 9.99056 4.94694C15.2409 4.94694 17.4087 4.95911 17.464 4.99158ZM17.6496 13.4927C17.6496 16.7349 17.6463 17.0555 17.5942 17.161C17.565 17.2259 17.5064 17.2949 17.464 17.3193C17.3469 17.3842 2.64727 17.3801 2.53009 17.3152C2.34456 17.2097 2.35107 17.3477 2.35107 13.4887V9.93807H10.0003H17.6496V13.4927Z" fill="#4C4C4C"/>
<path d="M4.51242 12.4372C4.27806 12.5792 4.25853 13.0053 4.47662 13.1838C4.53846 13.2365 4.99742 13.2447 7.59166 13.2568C9.69113 13.265 10.6709 13.2568 10.7555 13.2244C11.0127 13.131 11.094 12.774 10.915 12.5264L10.8206 12.3925L7.71535 12.3844C4.97138 12.3763 4.60031 12.3803 4.51242 12.4372Z" fill="#4C4C4C"/>
<path d="M4.51242 14.1012C4.27806 14.2432 4.25853 14.6693 4.47662 14.8479C4.53521 14.9006 4.82816 14.9128 6.2571 14.9209C7.41589 14.929 8.00504 14.9209 8.08642 14.8884C8.34356 14.7951 8.42494 14.438 8.24591 14.1905L8.15152 14.0566L6.38079 14.0485C4.83792 14.0363 4.60031 14.0444 4.51242 14.1012Z" fill="#4C4C4C"/>
</svg>
