<svg width="20" height="20" viewBox="0 0 20 20" fill="none" xmlns="http://www.w3.org/2000/svg">
<path d="M15.6499 4.34984C14.4358 3.13207 12.8617 2.3379 11.1608 2.08503C9.45995 1.83216 7.72287 2.13406 6.20706 2.94598C4.69125 3.75789 3.47739 5.03661 2.7454 6.59259C2.01342 8.14857 1.80226 9.899 2.14324 11.5844C2.48422 13.2698 3.35919 14.8005 4.63844 15.9496C5.9177 17.0987 7.53315 17.805 9.24536 17.9638C10.9576 18.1227 12.6754 17.7256 14.1442 16.8315C15.613 15.9374 16.7546 14.5938 17.3999 12.9998H15.1799C14.5618 14.0915 13.617 14.9621 12.4785 15.4889C11.34 16.0158 10.0649 16.1726 8.8327 15.9372C7.60045 15.7018 6.47299 15.086 5.60887 14.1765C4.74475 13.2671 4.18745 12.1096 4.01533 10.8669C3.84322 9.62425 4.06495 8.35889 4.64935 7.24878C5.23375 6.13868 6.15141 5.23968 7.27328 4.67821C8.39516 4.11674 9.66481 3.92105 10.9037 4.11865C12.1426 4.31626 13.2883 4.89722 14.1799 5.77984L10.9999 8.99984H17.9999V1.99984L15.6499 4.34984Z" fill="#4C4C4C"/>
</svg>
