<svg width="10" height="14" viewBox="0 0 10 14" fill="none" xmlns="http://www.w3.org/2000/svg">
<path d="M8.80808 3.66666H7.27892C7.14547 3.18125 6.90996 2.72744 6.587 2.33333H8.80808C8.99159 2.33333 9.16758 2.2631 9.29735 2.13807C9.4271 2.01305 9.5 1.84348 9.5 1.66667C9.5 1.48985 9.4271 1.32029 9.29735 1.19526C9.16758 1.07024 8.99159 1 8.80808 1H1.19689C1.01338 1 0.837389 1.07024 0.707628 1.19526C0.577867 1.32029 0.504968 1.48985 0.504968 1.66667C0.504968 1.84348 0.577867 2.01305 0.707628 2.13807C0.837389 2.2631 1.01338 2.33333 1.19689 2.33333H3.61864C4.07547 2.33488 4.52253 2.46089 4.90821 2.69682C5.29387 2.93275 5.60242 3.26897 5.7982 3.66666H1.19689C1.01338 3.66666 0.837389 3.7369 0.707628 3.86193C0.577867 3.98695 0.504968 4.15652 0.504968 4.33333C0.504968 4.51014 0.577867 4.6797 0.707628 4.80473C0.837389 4.92976 1.01338 5 1.19689 5H6.04037C5.95742 5.55373 5.67074 6.06031 5.23256 6.42742C4.79439 6.79453 4.23389 6.99774 3.65323 6.99999H1.19689C1.16468 6.99687 1.13223 6.99687 1.10002 6.99999C1.05413 6.99361 1.00753 6.99361 0.961639 6.99999C0.914519 7.01556 0.870175 7.03805 0.830173 7.06666L0.747142 7.11333C0.709584 7.14662 0.676985 7.18475 0.650272 7.22666C0.626859 7.25605 0.606028 7.28727 0.587999 7.31999C0.581736 7.35976 0.581736 7.40022 0.587999 7.43999C0.538691 7.50649 0.509907 7.58507 0.504968 7.66666C0.501731 7.69769 0.501731 7.72896 0.504968 7.75999C0.498344 7.8042 0.498344 7.84911 0.504968 7.89332C0.521134 7.93872 0.544473 7.98144 0.57416 8.01999C0.57416 8.01999 0.57416 8.07333 0.622595 8.09999L4.77415 12.7667C4.89344 12.9011 5.06323 12.9842 5.24619 12.998C5.42916 13.0118 5.61029 12.9549 5.74976 12.84C5.88924 12.725 5.97561 12.5615 5.98987 12.3852C6.00415 12.2089 5.94516 12.0343 5.82588 11.8999L2.70529 8.33332H3.61864C4.57076 8.33712 5.48978 7.99689 6.1943 7.3798C6.89883 6.76271 7.33767 5.91357 7.42422 5H8.80808C8.99159 5 9.16758 4.92976 9.29735 4.80473C9.4271 4.6797 9.5 4.51014 9.5 4.33333C9.5 4.15652 9.4271 3.98695 9.29735 3.86193C9.16758 3.7369 8.99159 3.66666 8.80808 3.66666Z" fill="#222222"/>
</svg>
